<mxfile host="Electron" modified="2023-10-21T00:25:51.019Z" agent="Mozilla/5.0 (Windows NT 10.0; Win64; x64) AppleWebKit/537.36 (KHTML, like Gecko) draw.io/21.2.8 Chrome/112.0.5615.165 Electron/24.2.0 Safari/537.36" etag="3uX5XcQTxOrkhmR82sEM" version="21.2.8" type="device">
  <diagram name="PÃ¡gina-1" id="_t-muTiGUheZPStMSC1u">
    <mxGraphModel dx="1925" dy="828" grid="1" gridSize="10" guides="1" tooltips="1" connect="1" arrows="1" fold="1" page="1" pageScale="1" pageWidth="827" pageHeight="1169" math="0" shadow="0">
      <root>
        <mxCell id="0" />
        <mxCell id="1" parent="0" />
        <mxCell id="1QwF4zkn8fzI-vI0zVAc-1" value="" style="swimlane;startSize=0;dashed=1;fillColor=none;swimlaneFillColor=none;dashPattern=12 12;" vertex="1" parent="1">
          <mxGeometry x="90" y="70" width="720" height="730" as="geometry" />
        </mxCell>
        <mxCell id="1QwF4zkn8fzI-vI0zVAc-8" value="Registra un nuevo usuario" style="ellipse;whiteSpace=wrap;html=1;" vertex="1" parent="1QwF4zkn8fzI-vI0zVAc-1">
          <mxGeometry x="110" y="10" width="120" height="80" as="geometry" />
        </mxCell>
        <mxCell id="1QwF4zkn8fzI-vI0zVAc-12" value="Loguear usuario" style="ellipse;whiteSpace=wrap;html=1;" vertex="1" parent="1QwF4zkn8fzI-vI0zVAc-1">
          <mxGeometry x="120" y="130" width="120" height="80" as="geometry" />
        </mxCell>
        <mxCell id="1QwF4zkn8fzI-vI0zVAc-16" value="Dar opciones" style="ellipse;whiteSpace=wrap;html=1;" vertex="1" parent="1QwF4zkn8fzI-vI0zVAc-1">
          <mxGeometry x="180" y="250" width="120" height="80" as="geometry" />
        </mxCell>
        <mxCell id="1QwF4zkn8fzI-vI0zVAc-19" value="Use" style="endArrow=open;endSize=12;dashed=1;html=1;rounded=0;entryX=0.5;entryY=0;entryDx=0;entryDy=0;exitX=0.5;exitY=1;exitDx=0;exitDy=0;" edge="1" parent="1QwF4zkn8fzI-vI0zVAc-1" source="1QwF4zkn8fzI-vI0zVAc-8" target="1QwF4zkn8fzI-vI0zVAc-12">
          <mxGeometry width="160" relative="1" as="geometry">
            <mxPoint x="340" y="610" as="sourcePoint" />
            <mxPoint x="500" y="610" as="targetPoint" />
          </mxGeometry>
        </mxCell>
        <mxCell id="1QwF4zkn8fzI-vI0zVAc-21" value="Use" style="endArrow=open;endSize=12;dashed=1;html=1;rounded=0;" edge="1" parent="1QwF4zkn8fzI-vI0zVAc-1" source="1QwF4zkn8fzI-vI0zVAc-12" target="1QwF4zkn8fzI-vI0zVAc-16">
          <mxGeometry width="160" relative="1" as="geometry">
            <mxPoint x="180" y="100" as="sourcePoint" />
            <mxPoint x="190" y="140" as="targetPoint" />
          </mxGeometry>
        </mxCell>
        <mxCell id="1QwF4zkn8fzI-vI0zVAc-39" style="edgeStyle=orthogonalEdgeStyle;rounded=0;orthogonalLoop=1;jettySize=auto;html=1;entryX=0.5;entryY=0;entryDx=0;entryDy=0;" edge="1" parent="1QwF4zkn8fzI-vI0zVAc-1" source="1QwF4zkn8fzI-vI0zVAc-22" target="1QwF4zkn8fzI-vI0zVAc-35">
          <mxGeometry relative="1" as="geometry">
            <Array as="points">
              <mxPoint x="550" y="200" />
            </Array>
          </mxGeometry>
        </mxCell>
        <mxCell id="1QwF4zkn8fzI-vI0zVAc-22" value="Generar cuestionario" style="ellipse;whiteSpace=wrap;html=1;" vertex="1" parent="1QwF4zkn8fzI-vI0zVAc-1">
          <mxGeometry x="320" y="160" width="120" height="80" as="geometry" />
        </mxCell>
        <mxCell id="1QwF4zkn8fzI-vI0zVAc-26" value="Recibir codigo" style="ellipse;whiteSpace=wrap;html=1;" vertex="1" parent="1QwF4zkn8fzI-vI0zVAc-1">
          <mxGeometry x="120" y="370" width="120" height="80" as="geometry" />
        </mxCell>
        <mxCell id="1QwF4zkn8fzI-vI0zVAc-20" value="Extends" style="endArrow=block;endSize=16;endFill=0;html=1;rounded=0;" edge="1" parent="1QwF4zkn8fzI-vI0zVAc-1" source="1QwF4zkn8fzI-vI0zVAc-26" target="1QwF4zkn8fzI-vI0zVAc-16">
          <mxGeometry width="160" relative="1" as="geometry">
            <mxPoint x="140" y="640" as="sourcePoint" />
            <mxPoint x="300" y="640" as="targetPoint" />
          </mxGeometry>
        </mxCell>
        <mxCell id="1QwF4zkn8fzI-vI0zVAc-27" value="Extends" style="endArrow=block;endSize=16;endFill=0;html=1;rounded=0;" edge="1" parent="1QwF4zkn8fzI-vI0zVAc-1" source="1QwF4zkn8fzI-vI0zVAc-22" target="1QwF4zkn8fzI-vI0zVAc-16">
          <mxGeometry width="160" relative="1" as="geometry">
            <mxPoint x="320" y="310" as="sourcePoint" />
            <mxPoint x="480" y="310" as="targetPoint" />
          </mxGeometry>
        </mxCell>
        <mxCell id="1QwF4zkn8fzI-vI0zVAc-44" style="rounded=0;orthogonalLoop=1;jettySize=auto;html=1;" edge="1" parent="1QwF4zkn8fzI-vI0zVAc-1" source="1QwF4zkn8fzI-vI0zVAc-30" target="1QwF4zkn8fzI-vI0zVAc-43">
          <mxGeometry relative="1" as="geometry" />
        </mxCell>
        <mxCell id="1QwF4zkn8fzI-vI0zVAc-30" value="linkear user con cuestionario" style="ellipse;whiteSpace=wrap;html=1;" vertex="1" parent="1QwF4zkn8fzI-vI0zVAc-1">
          <mxGeometry x="30" y="490" width="120" height="80" as="geometry" />
        </mxCell>
        <mxCell id="1QwF4zkn8fzI-vI0zVAc-31" value="Generar codigo del cuestionario" style="ellipse;whiteSpace=wrap;html=1;" vertex="1" parent="1QwF4zkn8fzI-vI0zVAc-1">
          <mxGeometry x="510" y="420" width="120" height="80" as="geometry" />
        </mxCell>
        <mxCell id="1QwF4zkn8fzI-vI0zVAc-40" style="rounded=0;orthogonalLoop=1;jettySize=auto;html=1;exitX=0.5;exitY=1;exitDx=0;exitDy=0;entryX=1;entryY=0;entryDx=0;entryDy=0;" edge="1" parent="1QwF4zkn8fzI-vI0zVAc-1" source="1QwF4zkn8fzI-vI0zVAc-35" target="1QwF4zkn8fzI-vI0zVAc-38">
          <mxGeometry relative="1" as="geometry" />
        </mxCell>
        <mxCell id="1QwF4zkn8fzI-vI0zVAc-35" value="Recibir preguntas" style="ellipse;whiteSpace=wrap;html=1;" vertex="1" parent="1QwF4zkn8fzI-vI0zVAc-1">
          <mxGeometry x="490" y="210" width="120" height="80" as="geometry" />
        </mxCell>
        <mxCell id="1QwF4zkn8fzI-vI0zVAc-36" value="Use" style="endArrow=open;endSize=12;dashed=1;html=1;rounded=0;" edge="1" parent="1QwF4zkn8fzI-vI0zVAc-1" source="1QwF4zkn8fzI-vI0zVAc-41" target="1QwF4zkn8fzI-vI0zVAc-31">
          <mxGeometry width="160" relative="1" as="geometry">
            <mxPoint x="209" y="218" as="sourcePoint" />
            <mxPoint x="231" y="262" as="targetPoint" />
          </mxGeometry>
        </mxCell>
        <mxCell id="1QwF4zkn8fzI-vI0zVAc-42" style="rounded=0;orthogonalLoop=1;jettySize=auto;html=1;" edge="1" parent="1QwF4zkn8fzI-vI0zVAc-1" source="1QwF4zkn8fzI-vI0zVAc-38" target="1QwF4zkn8fzI-vI0zVAc-41">
          <mxGeometry relative="1" as="geometry" />
        </mxCell>
        <mxCell id="1QwF4zkn8fzI-vI0zVAc-38" value="Documentar formato de la respuesta" style="ellipse;whiteSpace=wrap;html=1;" vertex="1" parent="1QwF4zkn8fzI-vI0zVAc-1">
          <mxGeometry x="430" y="300" width="120" height="80" as="geometry" />
        </mxCell>
        <mxCell id="1QwF4zkn8fzI-vI0zVAc-41" value="Establecer Respuesta correcta" style="ellipse;whiteSpace=wrap;html=1;" vertex="1" parent="1QwF4zkn8fzI-vI0zVAc-1">
          <mxGeometry x="330" y="390" width="120" height="80" as="geometry" />
        </mxCell>
        <mxCell id="1QwF4zkn8fzI-vI0zVAc-47" style="rounded=0;orthogonalLoop=1;jettySize=auto;html=1;" edge="1" parent="1QwF4zkn8fzI-vI0zVAc-1" source="1QwF4zkn8fzI-vI0zVAc-43" target="1QwF4zkn8fzI-vI0zVAc-45">
          <mxGeometry relative="1" as="geometry" />
        </mxCell>
        <mxCell id="1QwF4zkn8fzI-vI0zVAc-43" value="Mostrar Preguntas y respuestas" style="ellipse;whiteSpace=wrap;html=1;" vertex="1" parent="1QwF4zkn8fzI-vI0zVAc-1">
          <mxGeometry x="70" y="610" width="120" height="80" as="geometry" />
        </mxCell>
        <mxCell id="1QwF4zkn8fzI-vI0zVAc-48" style="rounded=0;orthogonalLoop=1;jettySize=auto;html=1;" edge="1" parent="1QwF4zkn8fzI-vI0zVAc-1" source="1QwF4zkn8fzI-vI0zVAc-45" target="1QwF4zkn8fzI-vI0zVAc-46">
          <mxGeometry relative="1" as="geometry" />
        </mxCell>
        <mxCell id="1QwF4zkn8fzI-vI0zVAc-45" value="Recibir respuesta de los usuarios" style="ellipse;whiteSpace=wrap;html=1;" vertex="1" parent="1QwF4zkn8fzI-vI0zVAc-1">
          <mxGeometry x="180" y="475" width="120" height="80" as="geometry" />
        </mxCell>
        <mxCell id="1QwF4zkn8fzI-vI0zVAc-50" style="rounded=0;orthogonalLoop=1;jettySize=auto;html=1;" edge="1" parent="1QwF4zkn8fzI-vI0zVAc-1" source="1QwF4zkn8fzI-vI0zVAc-46" target="1QwF4zkn8fzI-vI0zVAc-49">
          <mxGeometry relative="1" as="geometry" />
        </mxCell>
        <mxCell id="1QwF4zkn8fzI-vI0zVAc-46" value="Registrar el tiempo de respuesta" style="ellipse;whiteSpace=wrap;html=1;" vertex="1" parent="1QwF4zkn8fzI-vI0zVAc-1">
          <mxGeometry x="360" y="500" width="120" height="80" as="geometry" />
        </mxCell>
        <mxCell id="1QwF4zkn8fzI-vI0zVAc-59" style="rounded=0;orthogonalLoop=1;jettySize=auto;html=1;" edge="1" parent="1QwF4zkn8fzI-vI0zVAc-1" source="1QwF4zkn8fzI-vI0zVAc-49" target="1QwF4zkn8fzI-vI0zVAc-51">
          <mxGeometry relative="1" as="geometry" />
        </mxCell>
        <mxCell id="1QwF4zkn8fzI-vI0zVAc-49" value="Verificar si las respuestas son correctas" style="ellipse;whiteSpace=wrap;html=1;" vertex="1" parent="1QwF4zkn8fzI-vI0zVAc-1">
          <mxGeometry x="230" y="610" width="120" height="80" as="geometry" />
        </mxCell>
        <mxCell id="1QwF4zkn8fzI-vI0zVAc-51" value="Asignar puntaje" style="ellipse;whiteSpace=wrap;html=1;" vertex="1" parent="1QwF4zkn8fzI-vI0zVAc-1">
          <mxGeometry x="400" y="630" width="120" height="80" as="geometry" />
        </mxCell>
        <mxCell id="1QwF4zkn8fzI-vI0zVAc-25" value="Use" style="endArrow=open;endSize=12;dashed=1;html=1;rounded=0;" edge="1" parent="1QwF4zkn8fzI-vI0zVAc-1" source="1QwF4zkn8fzI-vI0zVAc-51" target="1QwF4zkn8fzI-vI0zVAc-57">
          <mxGeometry width="160" relative="1" as="geometry">
            <mxPoint x="90" y="750" as="sourcePoint" />
            <mxPoint x="250" y="750" as="targetPoint" />
          </mxGeometry>
        </mxCell>
        <mxCell id="1QwF4zkn8fzI-vI0zVAc-54" value="Use" style="endArrow=open;endSize=12;dashed=1;html=1;rounded=0;" edge="1" parent="1QwF4zkn8fzI-vI0zVAc-1" source="1QwF4zkn8fzI-vI0zVAc-26" target="1QwF4zkn8fzI-vI0zVAc-30">
          <mxGeometry width="160" relative="1" as="geometry">
            <mxPoint x="209" y="218" as="sourcePoint" />
            <mxPoint x="231" y="262" as="targetPoint" />
          </mxGeometry>
        </mxCell>
        <mxCell id="1QwF4zkn8fzI-vI0zVAc-57" value="Mostrar puntajes" style="ellipse;whiteSpace=wrap;html=1;" vertex="1" parent="1QwF4zkn8fzI-vI0zVAc-1">
          <mxGeometry x="530" y="550" width="120" height="80" as="geometry" />
        </mxCell>
        <mxCell id="1QwF4zkn8fzI-vI0zVAc-55" style="rounded=0;orthogonalLoop=1;jettySize=auto;html=1;endArrow=none;endFill=0;" edge="1" parent="1" source="1QwF4zkn8fzI-vI0zVAc-6" target="1QwF4zkn8fzI-vI0zVAc-30">
          <mxGeometry relative="1" as="geometry" />
        </mxCell>
        <mxCell id="1QwF4zkn8fzI-vI0zVAc-6" value="User" style="shape=umlActor;verticalLabelPosition=bottom;verticalAlign=top;html=1;outlineConnect=0;" vertex="1" parent="1">
          <mxGeometry x="-50" y="350" width="30" height="60" as="geometry" />
        </mxCell>
        <mxCell id="1QwF4zkn8fzI-vI0zVAc-7" value="BD" style="shape=umlActor;verticalLabelPosition=bottom;verticalAlign=top;html=1;outlineConnect=0;" vertex="1" parent="1">
          <mxGeometry x="880" y="250" width="30" height="60" as="geometry" />
        </mxCell>
        <mxCell id="1QwF4zkn8fzI-vI0zVAc-10" value="" style="endArrow=none;html=1;rounded=0;" edge="1" parent="1" target="1QwF4zkn8fzI-vI0zVAc-8">
          <mxGeometry width="50" height="50" relative="1" as="geometry">
            <mxPoint x="-20" y="380" as="sourcePoint" />
            <mxPoint x="440" y="400" as="targetPoint" />
          </mxGeometry>
        </mxCell>
        <mxCell id="1QwF4zkn8fzI-vI0zVAc-11" value="" style="endArrow=none;html=1;rounded=0;exitX=1;exitY=0.5;exitDx=0;exitDy=0;entryX=0;entryY=0.3333333333333333;entryDx=0;entryDy=0;entryPerimeter=0;" edge="1" parent="1" source="1QwF4zkn8fzI-vI0zVAc-8" target="1QwF4zkn8fzI-vI0zVAc-7">
          <mxGeometry width="50" height="50" relative="1" as="geometry">
            <mxPoint x="390" y="440" as="sourcePoint" />
            <mxPoint x="440" y="390" as="targetPoint" />
          </mxGeometry>
        </mxCell>
        <mxCell id="1QwF4zkn8fzI-vI0zVAc-13" value="" style="endArrow=none;html=1;rounded=0;entryX=0;entryY=0.5;entryDx=0;entryDy=0;" edge="1" parent="1" target="1QwF4zkn8fzI-vI0zVAc-12">
          <mxGeometry width="50" height="50" relative="1" as="geometry">
            <mxPoint x="-20" y="380" as="sourcePoint" />
            <mxPoint x="440" y="390" as="targetPoint" />
          </mxGeometry>
        </mxCell>
        <mxCell id="1QwF4zkn8fzI-vI0zVAc-28" value="" style="endArrow=none;html=1;rounded=0;exitX=1;exitY=0;exitDx=0;exitDy=0;" edge="1" parent="1" source="1QwF4zkn8fzI-vI0zVAc-12" target="1QwF4zkn8fzI-vI0zVAc-7">
          <mxGeometry width="50" height="50" relative="1" as="geometry">
            <mxPoint x="380" y="450" as="sourcePoint" />
            <mxPoint x="430" y="400" as="targetPoint" />
          </mxGeometry>
        </mxCell>
        <mxCell id="1QwF4zkn8fzI-vI0zVAc-33" value="" style="endArrow=none;html=1;rounded=0;exitX=1;exitY=0.5;exitDx=0;exitDy=0;entryX=0;entryY=1;entryDx=0;entryDy=0;entryPerimeter=0;" edge="1" parent="1" source="1QwF4zkn8fzI-vI0zVAc-31" target="1QwF4zkn8fzI-vI0zVAc-7">
          <mxGeometry width="50" height="50" relative="1" as="geometry">
            <mxPoint x="380" y="440" as="sourcePoint" />
            <mxPoint x="430" y="390" as="targetPoint" />
          </mxGeometry>
        </mxCell>
        <mxCell id="1QwF4zkn8fzI-vI0zVAc-53" value="" style="endArrow=none;html=1;rounded=0;entryX=1;entryY=1;entryDx=0;entryDy=0;entryPerimeter=0;" edge="1" parent="1" source="1QwF4zkn8fzI-vI0zVAc-57" target="1QwF4zkn8fzI-vI0zVAc-7">
          <mxGeometry width="50" height="50" relative="1" as="geometry">
            <mxPoint x="880" y="600" as="sourcePoint" />
            <mxPoint x="410" y="460" as="targetPoint" />
          </mxGeometry>
        </mxCell>
      </root>
    </mxGraphModel>
  </diagram>
</mxfile>
